<svg width="83" height="88" viewBox="0 0 83 88" fill="none" xmlns="http://www.w3.org/2000/svg">
<path d="M82 31.1C81.5 22.4 77.6 14.5 71.1 8.80001C64.6 3.00001 56.3 5.63264e-06 47.6 0.600006C38.9 1.10001 30.9 5.00001 25.1 11.6C13.9 24.3 14.4 43.3 25.7 55.5L20.4 61.6L17.9 59.4L0.0999756 79.4L9.09998 87.5L26.9 67.3L24.8 65.5L30.1 59.4C35.9 63.6 42.7 65.7 49.4 65.7C58.4 65.7 67.4 62 73.8 54.8C79.7 48.2 82.6 39.8 82 31.1ZM69.4 50.8C59.7 61.7 42.9 62.7 31.8 53.1C20.9 43.3 19.9 26.5 29.5 15.5C34.2 10.1 40.8 7.00001 47.9 6.60001H49.5C56 6.60001 62.2 9.00001 67.1 13.4C72.4 18.1 75.6 24.5 76 31.6C76.5 38.6 74.1 45.4 69.4 50.8Z" fill="#004175"/>
</svg>
