<svg width="160" height="160" viewBox="0 0 160 160" fill="none" xmlns="http://www.w3.org/2000/svg">
<path d="M160 80C160 124.183 124.183 160 80 160C35.8172 160 0 124.183 0 80C0 35.8172 35.8172 0 80 0C124.183 0 160 35.8172 160 80Z" fill="#42AAFF"/>
<path d="M76.5888 36.3749C75.3483 37.7172 74.3146 39.1628 74.3146 39.7823C74.3146 40.2986 82.0674 48.4557 91.5775 57.9551L108.944 75.3019H34V83.5623H109.978L73.9011 119.598L79.8966 126L126 79.9484L103.052 57.0258C90.3371 44.3255 79.7933 34 79.3798 34C79.0697 34 77.8292 35.0326 76.5888 36.3749Z" fill="#004175"/>
</svg>
